<svg viewBox="0 0 64 64" xmlns="http://www.w3.org/2000/svg" role="img" aria-label="Veteran Drywall favicon">
<circle cx="32" cy="32" r="31" fill="#0C0E12" stroke="#D9A62E" stroke-width="2"/>
<g fill="#E8BC55">
  <rect x="30.5" y="16" width="3" height="30" rx="1.5"/>
  <rect x="26" y="24" width="12" height="3" rx="1.5"/>
  <ellipse cx="32" cy="15" rx="6" ry="4"/>
  <path d="M22,46 L32,46 L32,50 L18,50 C17,48 19,46.5 22,46 Z"/>
  <path d="M42,46 L32,46 L32,50 L46,50 C47,48 45,46.5 42,46 Z"/>
  <circle cx="18" cy="28" r="4"/>
  <path d="M14,32 C9,34 7,40 8,47 L24,47 C25,40 22,34 18,32 C16.5,31 15,31 14,32 Z"/>
</g>
</svg>
