<svg viewBox="0 0 860 216" xmlns="http://www.w3.org/2000/svg" role="img" aria-label="Veteran Drywall LLC">
<defs>
  <linearGradient id="goldFadeH" x1="0%" y1="0%" x2="0%" y2="100%">
    <stop offset="0%" stop-color="#E8BC55"/>
    <stop offset="100%" stop-color="#D9A62E"/>
  </linearGradient>
</defs>

<!-- emblem -->
<circle cx="108" cy="108" r="100" fill="none" stroke="url(#goldFadeH)" stroke-width="4"/>
<circle cx="108" cy="108" r="90" fill="#0C0E12" stroke="#D9A62E" stroke-width="1"/>

<!-- rifle / battlefield cross -->
<g fill="url(#goldFadeH)">
  <polygon points="105,58 112,58 115,74 102,74"/>
  <rect x="104" y="72" width="7" height="76" rx="2"/>
  <rect x="95" y="92" width="24" height="6" rx="2"/>
  <ellipse cx="107.5" cy="60" rx="12" ry="8"/>
  <rect x="95" y="59" width="25" height="4" rx="2"/>
</g>
<g fill="url(#goldFadeH)">
  <path d="M90,150 L108,150 L108,160 L84,160 C82,155 84,151 90,150 Z"/>
  <path d="M126,150 L108,150 L108,160 L132,160 C134,155 132,151 126,150 Z"/>
</g>

<!-- kneeling soldier silhouette -->
<g fill="url(#goldFadeH)">
  <circle cx="70" cy="98" r="9"/>
  <path d="M65,105
           C55,109 49,120 50,134
           C51,146 55,158 61,168
           L82,168
           C83,152 82,134 76,120
           C73,113 70,107 65,105 Z"/>
</g>

<!-- wordmark -->
<text x="238" y="100" font-family="'Barlow Condensed','Arial Narrow',sans-serif" font-weight="700" font-size="62" letter-spacing="2" fill="#F5F2EA">VETERAN</text>
<text x="238" y="160" font-family="'Barlow Condensed','Arial Narrow',sans-serif" font-weight="700" font-size="62" letter-spacing="2" fill="#E8BC55">DRYWALL</text>
<text x="240" y="188" font-family="'Barlow Condensed','Arial Narrow',sans-serif" font-weight="600" font-size="22" letter-spacing="4" fill="#F5F2EA" opacity="0.75">LLC · USMC VETERAN OWNED</text>
</svg>
